<svg width="256" height="256" viewBox="0 0 256 256" xmlns="http://www.w3.org/2000/svg">
  <rect width="256" height="256" fill="#FFFFFF"/>
  <g transform="translate(35 35)">
    <path d="M52 140c-7 0-14-2-20-6-13-8-22-23-22-40 0-13 5-25 14-34l34-34c10-10 24-16 39-16 19 0 36 9 47 24l-24 17c-5-8-13-12-23-12-7 0-14 3-19 8L45 81c-4 4-6 10-6 16 0 9 4 17 11 22 4 2 8 3 13 3h35v28H52z" fill="#4285F4"/>
    <path d="M142 15c15 0 29 6 39 16l16 16c17 17 22 42 13 63l-26-12c4-10 2-22-6-30l-16-16c-5-5-12-8-20-8-10 0-18 4-24 12L94 39c11-15 29-24 48-24z" fill="#34A853"/>
    <path d="M183 105c9 21 4 46-13 63l-34 34c-10 10-24 16-39 16-19 0-36-9-47-24l24-17c5 8 13 12 23 12 7 0 14-3 19-8l34-34c8-8 10-20 6-30l27-12z" fill="#EA4335"/>
    <path d="M114 217c-15 0-29-6-39-16l-16-16c-17-17-22-42-13-63l26 12c-4 10-2 22 6 30l16 16c5 5 12 8 20 8 10 0 18-4 24-12l24 17c-11 15-29 24-48 24z" fill="#FBBC04"/>
  </g>
</svg>
